<svg width="91" height="93" viewBox="0 0 91 93" fill="none" xmlns="http://www.w3.org/2000/svg">
<path fill-rule="evenodd" clip-rule="evenodd" d="M3.69646 92.1619L36.0979 92.1619C37.1055 92.1619 38.121 91.6694 38.8928 90.6853L71.0343 49.6518C71.8076 48.6677 72.1935 47.3753 72.1935 46.084C72.1935 44.7917 71.8076 43.4922 71.0343 42.5102L38.8928 1.47767C38.121 0.492557 37.1048 1.62427e-06 36.0979 1.663e-06L3.69646 4.7863e-06C1.65567 4.8648e-06 1.22396e-05 2.1126 1.21611e-05 4.71673L1.17283e-05 19.0787C1.17014e-05 19.9729 0.299651 20.8414 0.85108 21.5453L17.2732 42.5102C18.0465 43.4922 18.4324 44.7917 18.4324 46.084C18.4324 47.3753 18.0465 48.6677 17.2732 49.6518L0.851047 70.6172C0.299637 71.3212 1.0128e-05 72.1896 1.0101e-05 73.0838L9.66837e-06 87.4431C-0.000740426 90.0483 1.65492 92.1619 3.69646 92.1619Z" fill="#F59E0B"/>
<path fill-rule="evenodd" clip-rule="evenodd" d="M21.6965 92.1619L54.0979 92.1619C55.1055 92.1619 56.121 91.6694 56.8928 90.6853L89.0343 49.6518C89.8076 48.6677 90.1935 47.3753 90.1935 46.084C90.1935 44.7917 89.8076 43.4922 89.0343 42.5102L56.8928 1.47767C56.121 0.492557 55.1048 1.62427e-06 54.0979 1.663e-06L21.6965 4.7863e-06C19.6557 4.8648e-06 18 2.1126 18 4.71673L18 19.0787C18 19.9729 18.2997 20.8414 18.8511 21.5453L35.2732 42.5102C36.0465 43.4922 36.4324 44.7917 36.4324 46.084C36.4324 47.3753 36.0465 48.6677 35.2732 49.6518L18.851 70.6172C18.2996 71.3212 18 72.1896 18 73.0838L18 87.4431C17.9993 90.0483 19.6549 92.1619 21.6965 92.1619Z" fill="#0066FF"/>
</svg>
